<svg aria-hidden="true" style="position: absolute; width: 0; height: 0; overflow: hidden;" version="1.1"
  xmlns="http://www.w3.org/2000/svg" xmlns:xlink="http://www.w3.org/1999/xlink">
  <defs>

    <symbol id="icon-icon-add-to-cart" viewBox="0 0 32 32">
      <path fill="#c73b0f" style="fill: var(--color1, #c73b0f)"
        d="M10.031 29.333c1.052 0 1.905-0.853 1.905-1.905s-0.853-1.905-1.905-1.905v0c-1.052 0-1.905 0.853-1.905 1.905s0.853 1.905 1.905 1.905v0zM23.366 29.333c1.052 0 1.905-0.853 1.905-1.905s-0.853-1.905-1.905-1.905v0c-1.052 0-1.905 0.853-1.905 1.905s0.853 1.905 1.905 1.905v0zM5.251 3.432c-0.090-0.439-0.474-0.765-0.934-0.765-0 0-0 0-0 0h-3.809v1.905h3.029l3.657 18.283c0.090 0.439 0.473 0.764 0.932 0.765h17.143v-1.905h-16.36l-0.762-3.81h17.125c0.453-0 0.832-0.317 0.928-0.74l0.001-0.006 2.159-9.73h-1.95l-1.903 8.571h-16.742l-2.514-12.568z">
      </path>
      <path fill="#c73b0f" style="fill: var(--color1, #c73b0f)"
        d="M17.652 6.476v-3.81h-1.905v3.81h-3.81v1.905h3.81v3.81h1.905v-3.81h3.81v-1.905h-3.81z"></path>
    </symbol>

    <symbol id="icon-icon-carbon-neutral" viewBox="0 0 32 32">
      <path fill="#1ea575" style="fill: var(--color2, #1ea575)"
        d="M12.19 29.333h-2.857v-1.905h2.857v-11.842l-3.348-2.010 0.981-1.634 3.346 2.008c0.557 0.34 0.923 0.944 0.925 1.633v11.843c0 1.052-0.853 1.905-1.905 1.905v0z">
      </path>
      <path fill="#1ea575" style="fill: var(--color2, #1ea575)"
        d="M21.714 29.333h-2.857c-1.052 0-1.905-0.853-1.905-1.905v0-10.476h5.714c0.001 0 0.002 0 0.004 0 2.102 0 3.806-1.704 3.806-3.806 0-0.134-0.007-0.266-0.020-0.396l0.001 0.016c-0.265-1.948-1.918-3.434-3.919-3.434-0.027 0-0.054 0-0.081 0.001l0.004-0h-1.509l-0.168-0.742c-0.546-2.405-2.853-4.020-5.739-4.020-2.283 0.008-4.251 1.349-5.166 3.285l-0.015 0.035-0.296 0.635-0.823-0.11c-0.107-0.019-0.233-0.032-0.362-0.036l-0.005-0c-2.104 0-3.81 1.706-3.81 3.81s1.706 3.81 3.81 3.81v0 1.905c-3.156 0-5.714-2.558-5.714-5.714s2.558-5.714 5.714-5.714v0h0.076c1.345-2.287 3.79-3.8 6.589-3.81h0.001c3.505 0 6.373 1.883 7.383 4.762h0.030c0.020-0 0.044-0 0.068-0 2.991 0 5.459 2.236 5.823 5.128l0.003 0.029c0.017 0.167 0.027 0.361 0.027 0.558 0 3.156-2.558 5.714-5.714 5.714-0 0-0.001 0-0.001 0h-3.809v8.571h2.857v1.905z">
      </path>
    </symbol>

    <symbol id="icon-icon-decrement-quantity" viewBox="0 0 32 32">
      <path fill="#fff" style="fill: var(--color3, #fff)" d="M0 14h32v4h-32v-4z"></path>
    </symbol>

    <symbol id="icon-icon-increment-quantity" viewBox="0 0 32 32">
      <path fill="#fff" style="fill: var(--color3, #fff)" d="M32 14h-14v-14h-4v14h-14v4h14v14h4v-14h14v-4z"></path>
    </symbol>

    <symbol id="icon-icon-order-confirmed" viewBox="0 0 32 32">
      <path fill="#1ea575" style="fill: var(--color2, #1ea575)"
        d="M14 21.414l-5-5.001 1.413-1.413 3.587 3.586 7.585-7.586 1.415 1.415-9 8.999z"></path>
      <path fill="#1ea575" style="fill: var(--color2, #1ea575)"
        d="M16 2c-2.769 0-5.476 0.821-7.778 2.359s-4.097 3.725-5.156 6.283c-1.060 2.558-1.337 5.373-0.797 8.089s1.874 5.21 3.832 7.168c1.958 1.958 4.452 3.291 7.168 3.832s5.531 0.263 8.089-0.797c2.558-1.060 4.745-2.854 6.283-5.156s2.359-5.009 2.359-7.778c0-3.713-1.475-7.274-4.1-9.899s-6.186-4.101-9.9-4.101zM16 28c-2.373 0-4.693-0.704-6.667-2.022s-3.511-3.193-4.42-5.385-1.146-4.606-0.683-6.933c0.463-2.328 1.606-4.466 3.284-6.144s3.816-2.821 6.144-3.284c2.328-0.463 4.741-0.225 6.933 0.683s4.067 2.446 5.385 4.42c1.319 1.973 2.022 4.293 2.022 6.667 0 3.183-1.264 6.235-3.515 8.485s-5.303 3.515-8.485 3.515z">
      </path>
    </symbol>

    <symbol id="icon-icon-remove-item" viewBox="0 0 32 32">
      <path fill="#caafa7" style="fill: var(--color4, #caafa7)"
        d="M26.8 30l-10.8-10.8-10.8 10.8-3.2-3.2 10.8-10.8-10.8-10.8 3.2-3.2 10.8 10.8 10.8-10.8 3.2 3.2-10.8 10.8 10.8 10.8-3.2 3.2z">
      </path>
    </symbol>
    
    <symbol id="icon-illustration-empty-cart" viewBox="0 0 32 32">
      <path fill="#260f08" style="fill: var(--color5, #260f08)" opacity="0.15"
        d="M2.109 27.602c0 0.265 1.159 0.52 3.222 0.707s4.861 0.293 7.778 0.293c2.917 0 5.715-0.105 7.778-0.293s3.222-0.442 3.222-0.707-1.159-0.52-3.222-0.707c-2.063-0.188-4.861-0.293-7.778-0.293s-5.715 0.105-7.778 0.293c-2.063 0.188-3.222 0.442-3.222 0.707z">
      </path>
      <path fill="#87635a" style="fill: var(--color6, #87635a)"
        d="M29.996 6.055l-11.787 1.44 1.080 8.84 11.193-1.367c0.243-0.029 0.439-0.202 0.503-0.429l0.001-0.004c0.021-0.076 0.026-0.155 0.016-0.233l-1.006-8.246z">
      </path>
      <path fill="#ad8a85" style="fill: var(--color7, #ad8a85)"
        d="M18.64 11.036l11.787-1.438 0.359 2.944-11.785 1.44-0.36-2.945z"></path>
      <path fill="#caafa7" style="fill: var(--color4, #caafa7)"
        d="M21.409 9.195c-0.042-0.294-0.292-0.518-0.594-0.518-0.026 0-0.051 0.002-0.075 0.005l0.003-0c-0.294 0.039-0.518 0.288-0.518 0.589 0 0.027 0.002 0.054 0.005 0.081l-0-0.003 0.073 0.587c0 0.010 0.001 0.021 0.001 0.032 0 0.493-0.4 0.893-0.893 0.893-0.427 0-0.784-0.3-0.872-0.7l-0.001-0.006-0.327-2.667 3.62-4.22c4.813-0.173 8.533 0.9 8.753 2.7l0.32 2.633c0.001 0.011 0.002 0.024 0.002 0.037 0 0.162-0.131 0.293-0.293 0.293-0.015 0-0.030-0.001-0.044-0.003l0.002 0c-0.503-0.098-0.886-0.507-0.946-1.014l-0.001-0.006c-0.038-0.295-0.288-0.521-0.59-0.521-0.328 0-0.595 0.266-0.595 0.595 0 0.026 0.002 0.051 0.005 0.076l-0-0.003 0.073 0.587c0.003 0.022 0.004 0.047 0.004 0.073 0 0.139-0.047 0.266-0.126 0.367l0.001-0.001c-0.095 0.121-0.234 0.204-0.393 0.224l-0.003 0c-0.022 0.003-0.047 0.005-0.073 0.005-0.138 0-0.266-0.047-0.367-0.126l0.001 0.001c-0.121-0.095-0.204-0.234-0.224-0.393l-0-0.003c-0.029-0.241-0.199-0.436-0.425-0.501l-0.004-0.001c-0.048-0.014-0.104-0.022-0.161-0.022-0.189 0-0.357 0.088-0.466 0.225l-0.001 0.001c-0.079 0.1-0.127 0.228-0.127 0.367 0 0.025 0.002 0.049 0.004 0.073l-0-0.003 0.073 0.593c0.006 0.043 0.009 0.094 0.009 0.144 0 0.656-0.532 1.188-1.188 1.188-0.278 0-0.534-0.095-0.736-0.255l0.003 0.002c-0.242-0.191-0.407-0.469-0.446-0.787l-0.001-0.006-0.107-0.887c-0.035-0.294-0.282-0.519-0.583-0.519-0.030 0-0.059 0.002-0.087 0.006l0.003-0c-0.297 0.039-0.524 0.291-0.524 0.595 0 0.025 0.002 0.050 0.005 0.074l-0-0.003 0.040 0.293c0.003 0.022 0.005 0.047 0.005 0.073 0 0.328-0.266 0.595-0.595 0.595-0.302 0-0.552-0.226-0.59-0.518l-0-0.003-0.027-0.32z">
      </path>
      <path fill="#87635a" style="fill: var(--color6, #87635a)"
        d="M1.863 12.948c-0.24 2.12 4.186 4.36 9.867 4.987s10.52-0.54 10.76-2.667l-0.987 8.873c-0.24 2.12-5.060 3.334-10.76 2.667s-10.127-2.873-9.886-5.013l1.006-8.847z">
      </path>
      <path fill="#ad8a85" style="fill: var(--color7, #ad8a85)"
        d="M1.456 16.488c-0.24 2.113 4.186 4.36 9.893 5.007s10.513-0.547 10.753-2.667l-0.333 2.947c-0.24 2.12-5.060 3.333-10.76 2.666s-10.127-2.887-9.886-5.006l0.333-2.947z">
      </path>
      <path fill="#caafa7" style="fill: var(--color4, #caafa7)"
        d="M15.209 10.695c-0.673-0.147-1.554-0.29-2.447-0.394l-0.14-0.013c-6-0.667-11.113 0.473-11.333 2.593l-0.533 4.72c-0.005 0.034-0.007 0.074-0.007 0.114 0 0.491 0.398 0.889 0.889 0.889 0.461 0 0.839-0.35 0.884-0.799l0-0.004c0.030-0.469 0.418-0.838 0.892-0.838 0.493 0 0.894 0.4 0.894 0.893 0 0.051-0.004 0.101-0.013 0.15l0.001-0.005-0.2 1.773c-0.006 0.050-0.009 0.108-0.009 0.167 0 0.819 0.664 1.483 1.483 1.483 0.76 0 1.387-0.572 1.473-1.309l0.001-0.007c0.052-0.446 0.428-0.789 0.883-0.789 0.491 0 0.889 0.398 0.889 0.889 0 0.035-0.002 0.070-0.006 0.104l0-0.004-0.067 0.587c-0.002 0.022-0.003 0.047-0.003 0.073 0 0.493 0.4 0.893 0.893 0.893 0.446 0 0.816-0.327 0.883-0.755l0.001-0.005 0.033-0.3c0.088-0.743 0.714-1.313 1.473-1.313 0.819 0 1.483 0.664 1.483 1.483 0 0.060-0.004 0.119-0.010 0.177l0.001-0.007-0.1 0.88c-0.002 0.021-0.003 0.046-0.003 0.070 0 0.493 0.4 0.893 0.893 0.893 0.445 0 0.814-0.326 0.882-0.752l0.001-0.005 0.233-2.067c0.030-0.132 0.147-0.229 0.286-0.229 0.014 0 0.028 0.001 0.042 0.003l-0.002-0c0.148 0.013 0.263 0.136 0.263 0.286 0 0.014-0.001 0.029-0.003 0.043l0-0.002c-0.003 0.036-0.005 0.078-0.005 0.12 0 0.821 0.666 1.487 1.487 1.487 0.746 0 1.363-0.549 1.47-1.265l0.001-0.008 0.134-1.18c0.058-0.44 0.431-0.775 0.882-0.775 0.491 0 0.889 0.398 0.889 0.889 0 0.030-0.002 0.060-0.005 0.090l0-0.004c-0.002 0.022-0.003 0.047-0.003 0.073 0 0.493 0.4 0.893 0.893 0.893 0.446 0 0.816-0.327 0.883-0.755l0.001-0.005 0.447-3.886c0.003-0.023 0.005-0.050 0.005-0.077 0-0.304-0.228-0.554-0.522-0.589l-0.003-0-11.507-1.333 4.173-3.24z">
      </path>
      <path fill="#87635a" style="fill: var(--color6, #87635a)" d="M14.789 14.415l0.42-3.72-4.207 3.293 3.787 0.427z">
      </path>
    </symbol>
  </defs>
</svg>